<svg width="239" height="299" xmlns="http://www.w3.org/2000/svg" xmlns:xlink="http://www.w3.org/1999/xlink"><defs><path d="M365.238 407.447c0 7.62.254 16.828.762 27.624s2.096 21.211 4.763 31.245c2.668 10.034 6.922 18.607 12.765 25.72 5.842 7.112 14.225 10.669 25.148 10.669 11.177 0 19.75-3.557 25.72-10.67 5.97-7.112 10.288-15.685 12.955-25.719s4.255-20.449 4.763-31.245.762-20.004.762-27.624c0-4.573-.064-10.098-.19-16.575-.128-6.478-.636-13.146-1.525-20.005a185.739 185.739 0 0 0-3.81-20.385c-1.651-6.731-4.128-12.764-7.43-18.099-3.303-5.334-7.494-9.653-12.574-12.955-5.08-3.302-11.304-4.953-18.671-4.953-7.367 0-13.527 1.65-18.48 4.953-4.954 3.302-9.018 7.62-12.193 12.955-3.175 5.335-5.652 11.368-7.43 18.1a140.446 140.446 0 0 0-3.81 20.384c-.763 6.86-1.207 13.527-1.334 20.005-.127 6.477-.19 12.002-.19 16.575zm-54.106 0c0-25.91 2.603-47.693 7.81-65.348 5.208-17.654 12.257-31.816 21.148-42.485s19.242-18.29 31.054-22.862c11.812-4.572 24.323-6.858 37.532-6.858 13.463 0 26.1 2.286 37.913 6.858 11.812 4.573 22.227 12.193 31.244 22.862 9.018 10.67 16.13 24.83 21.338 42.485 5.208 17.655 7.811 39.437 7.811 65.348 0 26.672-2.603 48.962-7.81 66.87-5.208 17.91-12.32 32.198-21.339 42.867-9.017 10.669-19.432 18.29-31.244 22.862-11.812 4.572-24.45 6.858-37.913 6.858-13.21 0-25.72-2.286-37.532-6.858-11.812-4.573-22.163-12.193-31.054-22.862-8.89-10.67-15.94-24.958-21.147-42.866-5.208-17.909-7.811-40.199-7.811-66.871z" id="c"/><filter x="-6.4%" y="-3.8%" width="111.9%" height="111.6%" filterUnits="objectBoundingBox" id="a"><feGaussianBlur stdDeviation="3.538" in="SourceGraphic"/></filter><filter x="-9.2%" y="-5.8%" width="117.5%" height="115.6%" filterUnits="objectBoundingBox" id="b"><feOffset dx="-2" dy="11" in="SourceAlpha" result="shadowOffsetOuter1"/><feColorMatrix values="0 0 0 0 0.504809736 0 0 0 0 0.504809736 0 0 0 0 0.504809736 0 0 0 0.75147192 0" in="shadowOffsetOuter1"/></filter></defs><g filter="url(#a)" transform="rotate(21 975.068 -497.358)" fill="none" fill-rule="evenodd"><use fill="#000" filter="url(#b)" xlink:href="#c"/><use fill="#9A9A9B" xlink:href="#c"/></g></svg>