<svg width="391" height="369" xmlns="http://www.w3.org/2000/svg"><g fill="none" fill-rule="evenodd" opacity=".15"><path d="M170.68 364.558c7.9 2.95 16.326 4.437 24.763 4.442 8.437.01 16.88-1.448 24.81-4.404C311.422 313.872 386.182 188.9 391 87.554 385.721 5 257.94-.363 195.5.017 134.331-.357 5.148 6.8 0 87.576c4.823 101.317 79.548 226.248 170.68 276.982" fill="#3AAB47"/><path d="M199.1 289.158l.455-.498c40.936-43.497 72.882-77.446 113.813-120.95 12.67-13.46 21.195-20.688 9.28-34.749l-24.802-29.252-60.825-15.235h-75.835l-60.82 15.235c-9.32 10.988-15.958 18.822-25.284 29.81-8.837 10.409-.698 22.69 8.678 32.644L198.652 288.66l.449.498" fill="#FFFFFE"/><path d="M292.113 105.737c-12.41 9.126-27.924 13.102-43.688 16.623l20.628-1.937c5.325-.506 9.425-1.202 13.163 2.791l18.055 19.207c-3.662-7.02-7.324-14.035-10.98-21.06-2.286-4.386-2.362-4.257-.304-8.767 1.04-2.28 2.08-4.566 3.126-6.857M99.37 154.153c9.648 2.174 11.173 2.513 20.832 4.687 6.325 1.424 16.34.065 19.192-5.842l10.318-21.366c-.893 14.596-8.646 32.246 7.867 35.618L187.94 178c-13.207-1.051-25.306-4.65-30.798-1.477-6.46 3.722-2.575 9.887-.644 14.44l27.049 63.669c-17.185-31.907-32.194-56.49-53.778-77.387-8.77-8.49-19.046-14.45-30.398-23.092m8.162-48.416c10.74 8.227 27.12 12.496 43.682 16.623-8.373-.786-16.752-1.572-25.12-2.364-5.211-.489-5.19-.489-8.873 3.426l-17.852 19c3.91-7.51 7.827-15.013 11.737-22.521 1.577-3.016 1.533-2.893.136-5.998-1.24-2.719-2.48-5.442-3.71-8.166m84.002 50.107l-.399 1.682-.318-1.682c-1.718-7.66-3.424-15.33-5.136-22.994-2.001-8.999-1.238-8.814-10.394-11.48-8.022-2.336-16.044-4.666-24.073-7.002 26.641 4.415 53.27 4.415 79.929 0-36.838 10.714-31.552 5.324-39.609 41.476m110.895-1.691c-9.646 2.174-11.177 2.513-20.83 4.687-6.324 1.424-16.339.065-19.19-5.842l-10.318-21.366c.893 14.596 8.646 32.246-7.867 35.618L213.862 178c13.212-1.051 25.31-4.65 30.796-1.477 6.46 3.722 2.58 9.887.644 14.44l-27.041 63.669c17.183-31.907 32.186-56.49 53.774-77.387 8.765-8.49 19.04-14.45 30.396-23.092" fill="#3AAB47"/></g></svg>