<svg xmlns="http://www.w3.org/2000/svg" width="117" height="40"><defs><linearGradient id="a" x1="50%" x2="50%" y1="0%" y2="100%"><stop offset="0%" stop-color="#3AAB47"/><stop offset="100%" stop-color="#30903B"/></linearGradient></defs><g fill="none" fill-rule="evenodd"><path fill="#33983F" d="M45.899 23.056c-.494 0-.955.166-1.382.464-.395.331-.658.662-.724 1.06-.066.397.033.695.329.927l.329.198c.329.132.592.199.79.199h5.561l.493-2.847H45.9z"/><path fill="url(#a)" d="M113.522.377H9.242c-1.975 0-3.818 1.556-4.081 3.476L.488 36.228c-.296 1.92 1.086 3.476 3.06 3.476h104.28c1.974 0 3.817-1.555 4.08-3.476l4.673-32.375c.296-1.92-1.086-3.476-3.06-3.476zm-83.813 15.86H19.672c-1.81 0-3.29.96-4.475 2.847-.428.596-.69 1.357-.855 2.185-.033.132-.033.265-.066.397v.431c-.099 1.622.46 2.814 1.612 3.542.658.397 1.316.596 2.04.596h5.627l.56-3.211h-3.16l.593-3.31h7.47l-.592 3.442-1.218 6.952h-10.53c-2.764 0-4.804-.828-6.12-2.417-1.35-1.622-1.778-3.774-1.284-6.521.46-2.682 1.645-4.867 3.554-6.456 1.876-1.588 4.179-2.416 6.877-2.416H30.4l-.691 3.94zm26.621 2.251c0 .331-.033.795-.132 1.324l-.098.53-1.58 8.971H43.102c-.757 0-1.448-.132-2.04-.43-.757-.397-1.284-.96-1.613-1.655-.296-.696-.362-1.523-.23-2.417.033-.133.066-.232.066-.365a.793.793 0 0 0 .131-.396c.428-1.325 1.152-2.351 2.205-3.08.855-.562 1.777-.86 2.797-.86h7.404l.131-.827c.066-.265.066-.53.033-.762-.033-.231-.164-.496-.362-.761-.164-.265-.427-.43-.724-.563-.329-.1-.756-.165-1.316-.198h-8.39c-2.962 0-4.081.496-4.608 2.45l-1.744 9.864h-4.31l2.764-15.757h4.31l-.395 2.185.297-.497c.658-.927 1.48-1.258 2.632-1.589.198-.066.428-.1.724-.132.296 0 .46-.033.494-.033h.526l5.66.066h3.718c.23 0 .56.033.988.1.954.165 1.678.363 2.139.628.493.265.888.662 1.25 1.192.329.53.56 1.192.658 2.02.033.33.066.661.033.992zm11.32-7.382c-.823 0-1.415.1-1.711.331-.296.232-.526.662-.625 1.324l-.165.795h8.918l-2.764 15.757h-4.31l2.203-12.546H64.59l-2.205 12.546h-4.442l2.205-12.546h-2.172c0-.1 0-.232-.033-.331-.098-.828-.296-1.49-.658-2.02-.23-.33-.46-.628-.757-.86h4.18l.329-1.887c.065-.53.23-.993.46-1.39.231-.43.593-.828 1.054-1.258.493-.43.986-.729 1.513-.927a5.338 5.338 0 0 1 1.909-.331h9.115l-.395 2.218-.394 2.151h-4.312l.198-1.026H67.65zm20.04 18.207h-6.647c-2.435 0-4.245-.695-5.43-2.119-.395-.496-.724-1.025-.922-1.588-.428-1.192-.493-2.582-.23-4.171.066-.364.132-.696.23-1.026.494-1.92 1.481-3.51 2.929-4.734 1.678-1.39 3.719-2.119 6.12-2.119h6.713l-.295 1.788-.297 1.688h-6.153c-1.612 0-2.929.86-3.982 2.55a4.795 4.795 0 0 0-.756 1.92c0 .099-.033.628-.067.727-.066 1.457.395 2.517 1.449 3.145a3.21 3.21 0 0 0 1.81.53h6.152l-.624 3.41zm19.184-9.5l-.099.53-1.58 8.97H93.778c-.757 0-1.415-.132-2.04-.43-.724-.397-1.284-.96-1.58-1.655-.329-.696-.395-1.523-.23-2.417 0-.133.033-.232.066-.365.066-.165.099-.297.131-.396 0-.034 0-.067.034-.133.427-1.258 1.118-2.218 2.171-2.946.856-.563 1.777-.86 2.765-.86h7.402l.165-.828c.032-.265.066-.53 0-.762a1.672 1.672 0 0 0-.33-.761c-.197-.265-.46-.43-.756-.563-.297-.1-.724-.165-1.284-.165h-7.93l.625-3.476h8.984c.23 0 .559.033.986.1.922.165 1.646.363 2.14.628.46.265.888.662 1.217 1.192.362.53.56 1.192.658 2.02.066.33.066.661.066.992 0 .331-.065.795-.164 1.324z"/><path fill="#33983F" d="M95.226 23.52c-.429.331-.658.662-.757 1.06a.95.95 0 0 0 .329.927l.362.198c.296.132.56.199.79.199h5.528l.527-2.847h-5.398c-.526 0-.954.165-1.381.463z"/></g></svg>