<svg xmlns="http://www.w3.org/2000/svg">
    <g fill="none" fill-rule="evenodd">
        <path d="M19.207 41.494c.889.336 1.837.505 2.787.506.949.001 1.9-.165 2.791-.501C35.045 35.725 43.458 21.5 44 9.965 43.406.57 29.026-.04 22 .002 15.117-.041.58.774 0 9.968.543 21.5 8.952 35.72 19.207 41.494" fill="#3AAB47"></path>
        <path d="M22.419 33l.051-.057 12.84-13.862c1.429-1.542 2.39-2.37 1.046-3.982l-2.798-3.353L26.697 10h-8.555l-6.862 1.746c-1.05 1.26-1.8 2.157-2.852 3.417-.997 1.192-.079 2.6.98 3.74l12.96 14.04.05.057" fill="#FFFFFE"></path>
        <path d="M33.056 12c-1.436.995-3.232 1.429-5.056 1.813l2.387-.212c.616-.055 1.091-.13 1.524.305L34 16c-.424-.765-.848-1.53-1.27-2.296-.265-.479-.274-.465-.036-.956l.362-.748M11 17.563l2.352.534c.714.162 1.845.007 2.167-.665L16.684 15c-.1 1.661-.976 3.67.888 4.054L21 20.278c-1.491-.12-2.857-.53-3.477-.168-.73.423-.291 1.125-.073 1.643L20.504 29c-1.94-3.632-3.635-6.43-6.072-8.808-.99-.967-2.15-1.645-3.432-2.629M11.945 12c1.243.897 3.138 1.363 5.055 1.813l-2.907-.258c-.603-.053-.6-.053-1.027.373L11 16l1.358-2.456c.183-.328.178-.315.016-.654l-.43-.89M21.54 17.805l-.045.195-.036-.195-.578-2.664c-.225-1.042-.14-1.02-1.17-1.33L17 13c3 .511 5.998.511 9 0-4.148 1.241-3.553.617-4.46 4.805M34 17.563l-2.352.534c-.714.162-1.845.007-2.167-.665L28.316 15c.101 1.661.977 3.67-.888 4.054L24 20.278c1.492-.12 2.858-.53 3.477-.168.73.423.291 1.125.073 1.643L24.497 29c1.94-3.632 3.634-6.43 6.071-8.808.99-.967 2.15-1.645 3.432-2.629" fill="#3AAB47"></path>
    </g>
</svg>
