<svg id="site-logo" version="1.1" xmlns="http://www.w3.org/2000/svg" x="0" y="0" viewBox="-1 0 64 58" xml:space="preserve"><style>.st0{fill:#3aab47}</style><g id="ОГПО"><g id="Ui-kit" transform="translate(-45 -45)"><g id="Group-4" transform="translate(45 45)"><g id="КСЖ_RUS"><path id="Fill-2" class="st0" d="M27.2 58.3c1.3.5 2.6.7 3.9.7 1.3 0 2.7-.2 4-.7C49.6 50.2 61.5 30.2 62.3 14 61.4.8 41.1-.1 31.1 0 21.4-.1.8 1.1 0 14c.8 16.2 12.7 36.2 27.2 44.3"></path><path class="no-svg-hover" id="Fill-3" d="M31.7 46.4c6.6-7.1 11.7-12.5 18.2-19.6 2-2.2 3.4-3.3 1.5-5.6l-4-4.7-9.6-2.5H25.7L16 16.5l-4 4.8c-1.4 1.7-.1 3.7 1.4 5.3l18.3 19.8" fill="#fffffe"></path><path id="Fill-4" class="st0" d="M46.8 16.9c-2 1.4-4.6 2-7.2 2.5 1.3-.1 2-.2 3.4-.3.9-.1 1.5-.2 2.2.4l3 2.9c-.6-1.1-1.2-2.1-1.8-3.2-.4-.7-.4-.7 0-1.3 0-.3.2-.7.4-1"></path><path id="Fill-5" class="st0" d="M15.6 24.7c1.5.3 1.8.4 3.3.7 1 .2 2.6 0 3.1-.9l1.6-3.4c-.1 2.3-1.4 5.2 1.3 5.7l4.9 1.7c-2.1-.2-4-.7-4.9-.2-1 .6-.4 1.6-.1 2.3L29 40.7c-2.7-5.1-5.1-9-8.6-12.4-1.4-1.3-3-2.2-4.8-3.6"></path><path id="Fill-6" class="st0" d="M16.9 16.9c1.8 1.3 4.4 1.9 7.2 2.5-1.4-.1-2.7-.2-4.1-.4-.9-.1-.8-.1-1.5.5l-2.9 2.9c.6-1.2 1.3-2.3 1.9-3.4.3-.5.3-.4 0-.9l-.6-1.2"></path><path id="Fill-7" class="st0" d="M30.5 25l-.1.3V25c-.3-1.2-.5-2.5-.8-3.7-.3-1.5-.2-1.4-1.7-1.9-1.3-.4-2.6-.8-3.8-1.1 4.2.7 8.5.7 12.7 0-5.9 1.7-5 .8-6.3 6.7"></path><path id="Fill-8" class="st0" d="M48.1 24.7c-1.5.3-1.8.4-3.3.7-1 .2-2.6 0-3.1-.9l-1.6-3.4c.1 2.3 1.4 5.2-1.3 5.7L34 28.5c2.1-.2 4-.7 4.9-.2 1 .6.4 1.6.1 2.3l-4.3 10.2c2.7-5.1 5.1-9 8.6-12.4 1.4-1.4 3-2.3 4.8-3.7"></path></g></g></g></g></svg>
