<?xml version="1.0" standalone="no"?>
<!DOCTYPE svg PUBLIC "-//W3C//DTD SVG 20010904//EN"
 "http://www.w3.org/TR/2001/REC-SVG-20010904/DTD/svg10.dtd">
<svg version="1.0" xmlns="http://www.w3.org/2000/svg"
 width="512.000000pt" height="512.000000pt" viewBox="0 0 512.000000 512.000000"
 preserveAspectRatio="xMidYMid meet">
<metadata>
Created by potrace 1.11, written by Peter Selinger 2001-2013
</metadata>
<g transform="translate(0.000000,512.000000) scale(0.100000,-0.100000)"
fill="#000000" stroke="none">
<path d="M2149 4985 c-2 -2 -53 -6 -114 -9 -112 -7 -188 -13 -260 -21 -22 -2
-67 -7 -100 -10 -283 -29 -680 -122 -897 -209 -147 -59 -335 -162 -399 -218
-15 -13 -49 -42 -77 -65 -69 -60 -154 -166 -203 -258 -100 -184 -116 -358 -64
-690 22 -136 25 -152 51 -265 13 -58 27 -116 30 -130 13 -64 81 -279 131 -414
360 -987 1061 -1910 1821 -2396 59 -38 121 -77 138 -88 100 -62 375 -88 548
-52 111 23 163 49 334 164 410 273 804 666 1122 1117 73 103 150 219 150 225
0 4 8 17 18 28 30 33 174 288 260 461 80 160 95 193 147 315 15 36 31 74 36
85 50 113 187 542 205 643 3 13 11 52 19 86 8 33 17 77 20 96 3 19 7 46 10 60
34 184 49 399 34 495 -65 408 -401 714 -964 880 -129 39 -353 90 -440 101 -22
2 -67 9 -100 14 -33 5 -87 12 -120 15 -33 3 -73 7 -90 10 -16 2 -68 7 -115 11
-47 3 -103 8 -125 11 -47 5 -1001 14 -1006 8z"/>
</g>
</svg>
