<svg xmlns="http://www.w3.org/2000/svg"><path d="M38.5 0C17.248 0 0 17.248 0 38.5S17.248 77 38.5 77 77 59.752 77 38.5 59.752 0 38.5 0zm13.898 24.409a7.41 7.41 0 0 1 7.431 7.43 7.41 7.41 0 0 1-7.43 7.431 7.41 7.41 0 0 1-7.431-7.43c-.039-4.12 3.311-7.431 7.43-7.431zm-23.1-6.083c5.006 0 9.087 4.081 9.087 9.086s-4.081 9.086-9.086 9.086-9.087-4.081-9.087-9.086a9.054 9.054 0 0 1 9.087-9.086zm0 35.15v14.438c-9.24-2.888-16.554-10.01-19.788-19.096 4.042-4.312 14.129-6.506 19.788-6.506 2.041 0 4.62.308 7.316.846-6.314 3.35-7.315 7.777-7.315 10.319zM38.5 69.3c-1.04 0-2.04-.038-3.041-.154v-15.67c0-5.466 11.319-8.2 16.94-8.2 4.119 0 11.242 1.502 14.784 4.427C62.678 61.139 51.55 69.3 38.5 69.3z" fill="#3AAB47" fill-rule="nonzero"></path></svg>
