<svg xmlns="http://www.w3.org/2000/svg"><path d="M67.263 55.833v3.723C67.263 63.65 63.9 67 59.79 67H7.474C3.326 67 0 63.65 0 59.556V7.444C0 3.35 3.326 0 7.474 0h52.315c4.111 0 7.474 3.35 7.474 7.444v3.723H33.632c-4.148 0-7.474 3.35-7.474 7.444V48.39c0 4.094 3.326 7.444 7.474 7.444h33.631zM33.632 48.39H71V18.61H33.632V48.39zm14.947-9.306c-3.102 0-5.605-2.494-5.605-5.583 0-3.09 2.503-5.583 5.605-5.583 3.102 0 5.605 2.494 5.605 5.583 0 3.09-2.503 5.583-5.605 5.583z" fill="#3AAB47" fill-rule="nonzero"></path></svg>
